<svg width="15" height="15" viewBox="0 0 15 15" fill="none" xmlns="http://www.w3.org/2000/svg">
<g clip-path="url(#clip0_3093_4357)">
<path d="M5.31207 5.31207L9.68753 9.68753M6.5622 12.8129L12.8129 6.5622C13.1049 6.27597 13.3374 5.93467 13.4967 5.55805C13.6561 5.18142 13.7392 4.77695 13.7413 4.368C13.7433 3.95906 13.6643 3.55376 13.5088 3.17555C13.3532 2.79733 13.1242 2.4537 12.8351 2.16453C12.5459 1.87536 12.2023 1.64639 11.8241 1.49084C11.4458 1.3353 11.0405 1.25627 10.6316 1.25834C10.2227 1.26041 9.81818 1.34352 9.44155 1.50288C9.06493 1.66223 8.72363 1.89467 8.4374 2.18675L2.18675 8.4374C1.89467 8.72363 1.66223 9.06493 1.50288 9.44155C1.34352 9.81818 1.26041 10.2227 1.25834 10.6316C1.25627 11.0405 1.3353 11.4458 1.49084 11.8241C1.64639 12.2023 1.87536 12.5459 2.16453 12.8351C2.4537 13.1242 2.79733 13.3532 3.17555 13.5088C3.55376 13.6643 3.95906 13.7433 4.368 13.7413C4.77695 13.7392 5.18142 13.6561 5.55805 13.4967C5.93467 13.3374 6.27597 13.1049 6.5622 12.8129Z" stroke="#176B5B" stroke-width="2" stroke-linecap="round"/>
</g>
<defs>
<clipPath id="clip0_3093_4357">
<rect width="15" height="15" fill="white"/>
</clipPath>
</defs>
</svg>
